<?xml version="1.0" standalone="no"?>
<!DOCTYPE svg PUBLIC "-//W3C//DTD SVG 20010904//EN"
 "http://www.w3.org/TR/2001/REC-SVG-20010904/DTD/svg10.dtd">
<svg version="1.0" xmlns="http://www.w3.org/2000/svg"
 width="139.000000pt" height="139.000000pt" viewBox="0 0 139.000000 139.000000"
 preserveAspectRatio="xMidYMid meet">
<metadata>
Created by potrace 1.11, written by Peter Selinger 2001-2013
</metadata>
<g transform="translate(0.000000,139.000000) scale(0.100000,-0.100000)"
fill="#000000" stroke="none">
<path d="M620 1013 c-59 -5 -143 -24 -191 -45 l-46 -19 -29 26 c-39 36 -93 32
-112 -8 -12 -25 -11 -33 7 -69 l20 -41 -29 -36 c-15 -20 -33 -53 -40 -74 -12
-39 -8 -125 6 -149 5 -7 7 -143 5 -303 l-3 -290 474 2 473 3 1 272 c1 226 4
280 17 313 32 80 16 179 -39 236 -23 25 -24 27 -9 62 36 88 -47 135 -120 67
-20 -18 -21 -18 -62 1 -87 40 -212 60 -323 52z"/>
</g>
</svg>
